<svg width="22" height="22" viewBox="0 0 22 22" fill="none" xmlns="http://www.w3.org/2000/svg">
<path d="M19.895 9.30176L20.979 10.3857C21.438 10.8447 21.438 11.5869 20.979 12.041L11.4917 21.5332C11.0327 21.9922 10.2905 21.9922 9.83643 21.5332L0.344238 12.041C-0.114746 11.582 -0.114746 10.8398 0.344238 10.3857L1.42822 9.30176C1.89209 8.83789 2.64893 8.84766 3.10303 9.32129L8.7085 15.2051V1.17188C8.7085 0.522461 9.23096 0 9.88037 0H11.4429C12.0923 0 12.6147 0.522461 12.6147 1.17188V15.2051L18.2202 9.32129C18.6743 8.84277 19.4312 8.83301 19.895 9.30176Z" fill="black"/>
</svg>
