<svg width="21.875000" height="21.875000" viewBox="0 0 21.875 21.875" fill="none" xmlns="http://www.w3.org/2000/svg" xmlns:xlink="http://www.w3.org/1999/xlink">
	<desc>
			Created with Pixso.
	</desc>
	<defs/>
	<path id="Vector" d="M19.5312 0L2.34375 0C1.72217 0 1.12598 0.246918 0.686462 0.686462C0.246948 1.12601 0 1.72214 0 2.34375L0 19.5312C0 20.1529 0.246948 20.749 0.686462 21.1885C1.12598 21.6281 1.72217 21.875 2.34375 21.875L9.04541 21.875L9.04541 14.438L5.96924 14.438L5.96924 10.9375L9.04541 10.9375L9.04541 8.26953C9.04541 5.23486 10.8521 3.55859 13.6191 3.55859C14.9443 3.55859 16.3301 3.79492 16.3301 3.79492L16.3301 6.77344L14.8032 6.77344C13.2988 6.77344 12.8296 7.70703 12.8296 8.66455L12.8296 10.9375L16.188 10.9375L15.6509 14.438L12.8296 14.438L12.8296 21.875L19.5312 21.875C20.1528 21.875 20.749 21.6281 21.1885 21.1885C21.6281 20.749 21.875 20.1529 21.875 19.5312L21.875 2.34375C21.875 1.72214 21.6281 1.12601 21.1885 0.686462C20.749 0.246918 20.1528 0 19.5312 0Z" fill="#000000" fill-opacity="1.000000" fill-rule="nonzero"/>
</svg>
