<svg width="19.000000" height="19.000000" viewBox="0 0 19 19" fill="none" xmlns="http://www.w3.org/2000/svg" xmlns:xlink="http://www.w3.org/1999/xlink">
	<desc>
			Created with Pixso.
	</desc>
	<defs/>
	<path id="Vector" d="M18.7416 16.4267L15.0415 12.7273C14.8745 12.5603 14.6481 12.4675 14.4106 12.4675L13.8057 12.4675C14.83 11.1577 15.4386 9.51019 15.4386 7.71799C15.4386 3.45456 11.9835 0 7.71931 0C3.45514 0 0 3.45456 0 7.71799C0 11.9814 3.45514 15.436 7.71931 15.436C9.51183 15.436 11.1596 14.8275 12.4697 13.8033L12.4697 14.4082C12.4697 14.6456 12.5624 14.872 12.7294 15.039L16.4295 18.7384C16.7784 19.0872 17.3425 19.0872 17.6876 18.7384L18.7379 17.6883C19.0867 17.3395 19.0867 16.7755 18.7416 16.4267ZM7.71931 12.4675C5.09549 12.4675 2.96896 10.3451 2.96896 7.71799C2.96896 5.09464 5.09178 2.96844 7.71931 2.96844C10.3431 2.96844 12.4697 5.09091 12.4697 7.71799C12.4697 10.3414 10.3468 12.4675 7.71931 12.4675Z" fill="#000000" fill-opacity="1.000000" fill-rule="nonzero"/>
</svg>
